<?xml version="1.0" encoding="UTF-8" standalone="no"?>
<!DOCTYPE svg PUBLIC "-//W3C//DTD SVG 1.1//EN" "http://www.w3.org/Graphics/SVG/1.1/DTD/svg11.dtd">
<svg width="100%" height="100%" viewBox="0 0 681 281" version="1.1" xmlns="http://www.w3.org/2000/svg" xmlns:xlink="http://www.w3.org/1999/xlink" xml:space="preserve" xmlns:serif="http://www.serif.com/" style="fill-rule:evenodd;clip-rule:evenodd;stroke-linejoin:round;stroke-miterlimit:2;">
    <g>
        <path d="M123.132,216.582C125.312,218.767 127.262,221.304 123.694,224.011C123.691,224.013 123.69,224.015 123.687,224.016C119.686,226.926 110.349,230.079 96.675,234.478C96.334,234.606 96.021,234.628 95.852,234.065C95.852,234.065 91.156,221.602 89.607,212.45C88.72,207.207 86.209,207.001 83.158,208.079C68.454,213.273 50.626,215.481 40.038,216.504C36.537,216.843 35.544,216.613 40.083,213.243C40.083,213.243 45.727,208.889 50.442,206.124C56.025,202.85 63.977,199.182 69.934,196.657C78.013,193.231 85.985,194.392 94.164,197.212C106.132,202.037 111.837,205.457 123.132,216.582ZM70.781,65.641C70.393,65.143 70.392,64.444 70.77,63.939C71.977,62.327 73.587,61.666 75.623,61.871C77.277,62.037 78.567,62.756 79.37,64.182C79.638,64.66 79.62,65.232 79.326,65.694C78.401,67.152 77.042,67.921 75.331,68.016C73.392,68.124 71.975,67.176 70.781,65.641ZM79.085,54.309C80.809,50.977 85.487,51.449 87.728,54.153C88.088,54.588 88.11,55.321 87.795,55.789C86.884,57.142 85.608,57.971 83.962,58.123C81.987,58.306 80.434,57.467 79.213,55.795C78.894,55.358 78.837,54.789 79.085,54.309ZM91.616,61.986C93.518,61.948 94.956,62.685 96.087,64.213C96.437,64.687 96.474,65.318 96.155,65.814C94.155,68.926 89.764,68.833 87.584,65.884C87.237,65.415 87.222,64.773 87.552,64.291C88.514,62.891 89.774,62.023 91.616,61.986ZM175.615,92.326C175.594,91.69 175.051,91.139 174.424,91.025C173.797,90.91 173.358,90.364 173.43,89.72L173.457,89.426C173.534,88.735 173.093,88.093 172.421,87.915L172.223,87.863C171.546,87.684 171.122,87.013 171.252,86.325L171.472,85.158C171.616,84.391 171.141,83.644 170.386,83.449C169.617,83.251 168.829,83.691 168.599,84.451C167.955,86.576 166.66,90.803 165.516,94.273C165.442,94.499 165.131,94.508 165.039,94.289C163.995,91.835 161.978,89.906 157.777,91.366C157.196,91.568 156.8,92.16 156.916,92.763C157.059,93.512 157.801,93.898 158.484,93.697C161.221,92.888 162.056,94.796 162.263,97.759C162.472,100.757 158.756,102.431 156.77,100.176C155.618,98.868 156.43,97.869 157.321,97.222C157.321,97.222 158.578,96.224 158.123,95.313L157.964,94.995C157.696,94.461 157.078,94.196 156.508,94.375C153.455,95.335 152.485,97.045 152.588,98.869C152.588,101.333 154.958,104.905 156.113,110.028C156.678,114.313 157.256,118.789 155.863,124.995C154.032,133.152 150.729,140.094 147.827,148.098C147.825,148.101 147.824,148.104 147.823,148.108C146.573,151.532 145.23,149.159 144.528,147.51C135.833,121.912 134.448,104.708 110.298,101.463C106.256,100.87 101.712,100.467 97.96,98.572C90.425,94.599 95.893,85.64 98.662,80.263C102.252,73.295 103.936,65.933 103.104,58.032C102.222,52.177 99.334,47.421 96.448,44.907C96.067,44.575 95.938,44.043 96.134,43.578L98.214,38.64C98.518,37.92 98.822,37.79 99.164,37.76C99.419,37.737 105.642,37.192 108.769,36.918C109.717,36.835 110.387,35.959 110.221,35.023L110.12,34.456C109.991,33.729 109.385,33.182 108.649,33.127C106.451,32.965 102.166,32.647 102.568,32.669C102.918,32.688 101.289,32.585 101.699,31.711L102.754,29.25C102.754,29.25 103.16,28.301 103.864,28.137L110.853,26.508C111.774,26.294 112.316,25.338 112.027,24.437L111.938,24.158C111.699,23.413 110.961,22.947 110.186,23.052C108.523,23.277 105.917,23.63 106.047,23.613C106.237,23.587 104.763,23.782 105.015,23.053L106.326,19.269C106.487,18.783 106.679,18.595 107.112,18.532C107.373,18.493 109.021,18.253 110.29,18.068C111.064,17.955 111.697,17.332 111.74,16.55C111.79,15.631 111.076,14.869 110.175,14.84L108.511,14.785C107.888,14.765 107.843,14.472 107.916,14.046L110.233,2.534C110.458,1.417 109.603,0.271 108.464,0.271L107.831,0.271C106.971,0.271 106.224,0.978 106.062,1.822C103.304,16.175 96.721,28.701 89.783,41.242C89.54,41.681 89.042,41.91 88.548,41.819C84.238,41.028 79.994,40.931 75.496,42.042C75.035,42.156 74.551,41.988 74.276,41.6C69.192,34.401 59.614,16.354 56.422,5.912C56.164,5.07 55.328,4.55 54.46,4.689L53.775,4.798C52.736,4.965 52.074,5.998 52.357,7.012L54.486,14.648C54.682,15.352 54.811,15.902 54.485,16.003L52.56,16.601C51.617,16.893 51.1,17.905 51.414,18.841L51.554,19.259C51.83,20.08 52.661,20.579 53.515,20.437L56.02,20.022C56.436,19.966 56.575,20.153 56.708,20.462L57.867,23.045C57.986,23.31 57.318,23.478 57.318,23.478L52.467,24.852C51.594,25.099 51.05,25.969 51.21,26.862L51.212,26.872C51.362,27.714 52.095,28.326 52.95,28.325L60.082,28.313C60.485,28.344 60.83,28.492 60.989,28.809L62.486,31.823C62.594,32.098 62.42,32.225 62.162,32.264L57.351,32.994C56.414,33.136 55.696,33.968 55.788,34.911C55.876,35.822 56.635,36.499 57.528,36.506L64.393,36.565C64.681,36.565 65.045,36.68 65.225,37.06L68.738,44.483C68.943,44.917 68.859,45.429 68.528,45.776C65.299,49.165 62.746,55.032 62.733,63.892C63.057,72.121 66.766,78.849 70.772,85.78C73.115,89.835 71.793,93.851 69.264,96.881C65.392,101.518 60.386,101.988 56.367,103.399C40.771,107.845 33.072,111.359 26.753,147.907C26.243,150.424 25.236,149.884 24.561,148.833C24.302,148.43 24.127,147.976 24.01,147.511C21.503,137.552 18.787,129.603 18.018,121.2C16.791,107.785 20.576,101.618 22.706,92C22.934,90.973 22.241,89.957 21.181,89.783C20.284,89.635 19.419,90.206 19.108,91.059C18.494,92.743 17.563,95.1 17.166,95.09C16.66,95.077 14.984,83.432 14.4,79.267C14.297,78.529 13.676,77.934 12.932,77.951C12.125,77.969 11.501,78.631 11.518,79.421C11.576,81.997 11.701,87.597 11.733,89.249C11.739,89.518 11.552,89.749 11.289,89.807C5.22,91.143 3.848,92.661 1.642,94.701C0.39,95.859 -0.202,97.567 0.061,99.251C1.479,108.29 6.195,113.193 6.599,123.04C6.902,130.427 7.018,137.686 8.361,147.602C9.502,156.025 11.152,164.1 17.326,169.862C19.028,171.451 22.274,172.579 24.888,172.635C30.858,172.763 34.934,170.366 38.184,164.127C41.84,157.11 44.576,149.428 47.697,142.144C48.905,139.327 51.652,131.156 55.442,131.122C63.597,131.122 64.426,158.391 56.658,166.628C42.273,184.818 -7.631,205.55 4.646,233.657C11.832,247.732 31,240.419 43.48,235.953L75.728,223.732C80.033,222.604 83.179,225.145 84.863,227.835C86.268,230.078 88.504,233.99 89.898,236.237C90.1,236.563 89.959,236.992 89.602,237.133C89.602,237.133 79.054,240.298 74.772,240.923C72.548,241.247 70.602,241.914 70.728,244.746C70.966,250.083 71.78,263.889 69.381,277.753C69.146,279.114 70.044,280.585 71.386,280.916C72.829,281.272 74.225,280.453 74.665,279.124C76.443,273.743 78.418,267.558 80.216,262.184C82.414,255.613 86.418,250.587 93.543,249.439C112.747,246.352 155.636,248.653 159.27,228.69C163.188,202.297 126.822,187.58 113.787,169.022C109.707,163.213 108.804,155.355 108.707,147.268C108.707,132.908 112.129,131.998 114.633,131.998C116.513,131.998 118.174,133.471 120.1,138.934C124.896,150.672 130.686,171.438 147.016,171.292C153.47,171.235 160.539,171.053 166.773,130.923C167.341,127.886 168.162,120.183 168.882,117.173C170.204,110.35 176.186,110.367 175.615,92.326ZM83.401,56.705C84.261,56.705 84.958,56.009 84.958,55.149C84.958,54.29 84.261,53.594 83.401,53.594C82.54,53.594 81.843,54.29 81.843,55.149C81.843,56.009 82.54,56.705 83.401,56.705ZM91.809,66.649C92.67,66.649 93.367,65.952 93.367,65.093C93.367,64.234 92.67,63.537 91.809,63.537C90.949,63.537 90.252,64.234 90.252,65.093C90.252,65.952 90.949,66.649 91.809,66.649ZM76.494,65.049C76.494,64.19 75.797,63.493 74.936,63.493C74.076,63.493 73.378,64.19 73.378,65.049C73.378,65.908 74.076,66.605 74.936,66.605C75.797,66.605 76.494,65.908 76.494,65.049Z" style="fill-rule:nonzero;"/>
        <path d="M247.388,98.511C247.388,97.9 247.51,96.682 247.632,95.096L266.541,95.096C266.419,104 270.567,107.05 279.229,107.05C288.866,107.05 293.38,102.658 293.38,95.827C293.014,87.531 289.842,86.556 281.425,84.726L274.471,83.262C266.907,81.676 260.685,79.113 255.928,75.576C251.17,72.038 248.852,66.183 248.852,58.253C248.852,43.858 261.295,34.464 281.058,34.464C290.086,34.464 297.284,36.294 302.53,40.076C307.775,43.736 310.093,49.957 309.483,58.863L290.574,58.863C291.184,51.909 287.402,48.371 279.35,48.371C271.421,48.371 266.785,52.275 266.785,58.131C266.785,63.986 270.323,66.549 276.789,68.012L285.816,70.086C298.015,73.014 304.725,75.332 308.751,81.676C310.825,84.726 311.923,88.996 311.923,94.363C311.923,108.881 300.7,120.958 278.985,120.958C258.976,120.958 247.388,112.784 247.388,98.511Z" style="fill-rule:nonzero;"/>
        <path d="M359.869,119.25C357.063,120.347 352.183,120.958 346.937,120.958C335.348,120.958 329.004,115.956 329.004,103.39L329.004,70.696L318.39,70.696L318.39,58.863L329.004,58.863L329.004,47.029L346.449,41.539L346.449,58.863L359.138,58.863L359.138,70.696L346.449,70.696L346.449,99.731C346.449,105.953 348.889,108.026 354.136,108.026C356.453,108.026 358.405,107.904 359.869,107.66L359.869,119.25Z" style="fill-rule:nonzero;"/>
        <path d="M422.917,58.863L422.917,119.859L405.472,119.859L405.472,111.808C402.178,117.298 395.956,120.958 387.539,120.958C375.827,120.958 367.654,114.248 367.654,99.121L367.654,58.863L385.098,58.863L385.098,97.169C385.098,104.488 388.148,109.002 394.858,109.002C401.812,109.002 405.472,104.367 405.472,95.461L405.472,58.863L422.917,58.863Z" style="fill-rule:nonzero;"/>
        <path d="M462.91,69.721C455.59,69.721 451.076,76.43 451.076,89.239C451.076,102.293 455.469,108.881 462.91,108.881C470.351,108.881 474.012,102.414 474.012,89.361C474.012,76.309 470.351,69.721 462.91,69.721ZM491.457,35.807L491.457,119.859L474.012,119.859L474.012,112.54C470.107,117.908 464.618,120.836 457.908,120.836C443.513,120.836 433.632,108.881 433.632,89.239C433.632,69.842 443.879,57.887 458.762,57.887C465.105,57.887 470.229,60.326 474.012,65.328L474.012,35.807L491.457,35.807Z" style="fill-rule:nonzero;"/>
        <path d="M504.621,119.859L504.621,58.863L522.065,58.863L522.065,119.859L504.621,119.859ZM504.255,52.52L504.255,35.807L522.432,35.807L522.432,52.52L504.255,52.52Z" style="fill-rule:nonzero;"/>
        <path d="M560.886,69.721C553.444,69.721 549.662,76.186 549.662,89.239C549.662,102.414 553.444,109.002 560.886,109.002C568.206,109.002 572.231,102.414 572.231,89.239C572.231,76.186 568.449,69.721 560.886,69.721ZM560.886,57.887C578.087,57.887 589.555,69.842 589.555,89.239C589.555,108.881 578.087,120.836 560.886,120.836C543.684,120.836 532.34,108.881 532.34,89.239C532.34,69.842 543.684,57.887 560.886,57.887Z" style="fill-rule:nonzero;"/>
        <path d="M295.332,178.058C295.332,173.3 293.746,170.129 290.696,168.787C287.646,167.445 284.352,166.713 281.058,166.713L267.517,166.713L267.517,191.355L278.985,191.355C288.744,191.355 295.332,186.841 295.332,178.058ZM296.308,236.859L295.332,221.123C294.722,210.509 291.306,205.263 280.936,205.263L267.517,205.263L267.517,236.859L249.34,236.859L249.34,152.806L283.376,152.806C292.038,152.806 299.236,154.757 304.847,158.662C310.581,162.443 313.387,168.177 313.387,175.863C313.387,189.648 304.97,195.626 293.38,197.09L293.38,198.187C305.945,199.652 311.679,204.653 312.655,217.218L314.241,236.859L296.308,236.859Z" style="fill-rule:nonzero;"/>
        <path d="M362.419,206.605C360.101,207.947 356.93,208.923 352.781,209.655C345.34,210.997 342.29,212.583 342.29,217.585C342.29,222.953 345.462,226.125 351.683,226.125C358.515,226.125 362.419,221.976 362.419,214.047L362.419,206.605ZM362.419,230.028C358.638,235.273 352.903,237.958 345.096,237.958C332.408,237.958 324.844,229.784 324.844,218.072C324.844,209.289 329.114,205.263 334.848,203.798C337.654,202.945 341.802,202.213 347.292,201.481C355.222,200.506 359.979,199.408 362.419,197.943L362.419,194.406C362.419,190.136 361.443,186.597 354.733,186.597C349.244,186.597 346.559,189.16 346.681,194.284L329.114,194.284C328.992,193.918 328.992,193.185 328.992,192.332C328.992,182.938 336.922,174.765 354.489,174.765C362.053,174.765 367.665,176.107 371.446,178.669C375.228,181.23 377.546,184.158 378.4,187.209C379.376,190.257 379.864,193.429 379.864,196.723L379.864,224.05C379.864,229.906 380.597,234.786 381.206,236.859L363.516,236.859C363.151,235.883 362.785,233.566 362.419,230.028Z" style="fill-rule:nonzero;"/>
        <path d="M448.281,236.859L430.958,236.859L430.958,198.553C430.958,191.234 427.786,186.72 420.832,186.72C413.879,186.72 410.219,191.355 410.219,200.261L410.219,236.859L392.773,236.859L392.773,152.806L410.219,152.806L410.219,182.816C413.146,177.936 419.49,174.765 426.931,174.765C432.909,174.765 438.033,176.594 442.059,180.132C446.207,183.67 448.281,189.16 448.281,196.601L448.281,236.859Z" style="fill-rule:nonzero;"/>
        <path d="M487.492,186.72C481.759,186.72 478.098,190.746 476.757,198.675L496.764,198.675C496.154,190.746 493.104,186.72 487.492,186.72ZM476.268,210.509C476.879,220.879 481.026,226.002 487.492,226.002C492.372,226.002 495.91,223.318 496.764,217.463L514.453,217.463C513.843,223.928 510.915,229.052 505.791,232.59C500.668,236.128 494.568,237.836 487.492,237.836C470.657,237.836 458.702,226.856 458.702,206.97C458.702,186.841 470.901,174.886 488.224,174.886C505.304,174.886 514.94,186.11 514.94,206.117C514.94,207.093 514.818,208.556 514.697,210.509L476.268,210.509Z" style="fill-rule:nonzero;"/>
        <path d="M551.932,186.72C546.199,186.72 542.539,190.746 541.197,198.675L561.204,198.675C560.595,190.746 557.545,186.72 551.932,186.72ZM540.709,210.509C541.319,220.879 545.467,226.002 551.932,226.002C556.812,226.002 560.35,223.318 561.204,217.463L578.893,217.463C578.283,223.928 575.355,229.052 570.231,232.59C565.108,236.128 559.009,237.836 551.932,237.836C535.098,237.836 523.142,226.856 523.142,206.97C523.142,186.841 535.342,174.886 552.665,174.886C569.744,174.886 579.382,186.11 579.382,206.117C579.382,207.093 579.26,208.556 579.138,210.509L540.709,210.509Z" style="fill-rule:nonzero;"/>
        <path d="M680.601,236.859L663.156,236.859L663.156,196.723C663.156,190.868 660.717,186.72 654.495,186.72C647.663,186.72 644.004,192.332 644.004,201.481L644.004,236.859L626.558,236.859L626.558,196.723C626.558,190.746 623.997,186.72 617.653,186.72C610.943,186.72 607.649,191.599 607.649,201.481L607.649,236.859L590.204,236.859L590.204,175.863L607.649,175.863L607.649,183.182C610.943,178.18 616.555,174.765 623.997,174.765C631.682,174.765 638.391,177.814 641.685,185.011C644.979,179.035 652.056,174.765 660.839,174.765C672.428,174.765 680.601,181.23 680.601,196.967L680.601,236.859Z" style="fill-rule:nonzero;"/>
    </g>
</svg>
